<svg xmlns="http://www.w3.org/2000/svg" width="40" height="57" viewBox="0 0 40 57">
  <g id="Group_3" data-name="Group 3" transform="translate(-49.209 -186.421)">
    <path id="Path_1" data-name="Path 1" d="M69.572,187.153a19.9,19.9,0,0,0-13.194,34.564c.008,0,.592.5.874.749a9.059,9.059,0,0,1,2.892,6.838v9.263a1.4,1.4,0,0,0,1.392,1.408h3.331a4.934,4.934,0,0,0,9.409,0h3.33A1.4,1.4,0,0,0,79,238.567v-9.254a9.064,9.064,0,0,1,2.892-6.847c.283-.249.865-.744.876-.749a19.9,19.9,0,0,0-13.194-34.564Z" fill="#ddd8d7"/>
    <path id="Path_2" data-name="Path 2" d="M68.848,186.421a19.9,19.9,0,0,0-13.193,34.564c.008,0,.592.5.874.749a9.06,9.06,0,0,1,2.893,6.847H78.274a9.064,9.064,0,0,1,2.892-6.847c.283-.249.865-.744.876-.749a19.9,19.9,0,0,0-13.194-34.564Z" fill="#ffb452"/>
    <g id="Group_1" data-name="Group 1">
      <rect id="Rectangle_1" data-name="Rectangle 1" width="0.776" height="17.94" transform="translate(64.031 209.233)" fill="#303030"/>
      <rect id="Rectangle_2" data-name="Rectangle 2" width="0.776" height="17.94" transform="translate(72.888 209.233)" fill="#303030"/>
      <path id="Path_3" data-name="Path 3" d="M65.776,209.233a1.358,1.358,0,1,1-1.358-1.373A1.365,1.365,0,0,1,65.776,209.233Z" fill="#303030"/>
      <path id="Path_4" data-name="Path 4" d="M74.634,209.233a1.358,1.358,0,1,1-1.358-1.373A1.365,1.365,0,0,1,74.634,209.233Z" fill="#303030"/>
      <path id="Path_5" data-name="Path 5" d="M68.289,210.783l.577-2.032-3.777.893-.177-.764,5.064-1.2-.576,2.032,3.535-.835.176.764Z" fill="#303030"/>
    </g>
    <path id="Path_6" data-name="Path 6" d="M68.848,186.421a19.9,19.9,0,0,0-13.193,34.564c.008,0,.592.5.874.749a9.06,9.06,0,0,1,2.893,6.847v6.9H78.274v-6.9a9.064,9.064,0,0,1,2.892-6.847c.283-.249.865-.744.876-.749a19.9,19.9,0,0,0-13.194-34.564ZM79.91,218.45c-.2.165-.481.405-.9.775a12.375,12.375,0,0,0-4.023,9.357v3.578H62.71v-3.578a12.371,12.371,0,0,0-4.02-9.353c-.429-.378-.7-.611-.886-.762A16.649,16.649,0,0,1,52.5,206.278a16.351,16.351,0,1,1,32.7,0A16.658,16.658,0,0,1,79.91,218.45Z" fill="#fc9229"/>
    <path id="Rectangle_3" data-name="Rectangle 3" d="M1.4,0H17.453a1.4,1.4,0,0,1,1.4,1.4V10.67a1.4,1.4,0,0,1-1.4,1.4H1.4A1.4,1.4,0,0,1,0,10.67V1.4A1.4,1.4,0,0,1,1.4,0Z" transform="translate(59.42 227.174)" fill="#f7f7f7"/>
    <g id="Group_2" data-name="Group 2">
      <rect id="Rectangle_4" data-name="Rectangle 4" width="18.854" height="0.732" transform="translate(59.42 229.711)" fill="#bababa"/>
      <rect id="Rectangle_5" data-name="Rectangle 5" width="18.854" height="0.731" transform="translate(59.42 231.799)" fill="#bababa"/>
      <rect id="Rectangle_6" data-name="Rectangle 6" width="18.854" height="0.732" transform="translate(59.42 233.886)" fill="#bababa"/>
      <rect id="Rectangle_7" data-name="Rectangle 7" width="18.854" height="0.731" transform="translate(59.42 235.975)" fill="#bababa"/>
    </g>
    <path id="Path_7" data-name="Path 7" d="M73.557,239.248a5.069,5.069,0,0,1-.227.568,4.933,4.933,0,0,1-8.967,0,5.156,5.156,0,0,1-.228-.568Z" fill="#303030"/>
    <path id="Path_8" data-name="Path 8" d="M78.274,228.581H59.42a1.4,1.4,0,0,1,1.392-1.407h16.07A1.4,1.4,0,0,1,78.274,228.581Z" fill="#303030"/>
    <path id="Path_9" data-name="Path 9" d="M59.42,237.84H78.274a1.4,1.4,0,0,1-1.392,1.408H60.812A1.4,1.4,0,0,1,59.42,237.84Z" fill="#303030"/>
    <path id="Path_10" data-name="Path 10" d="M73.557,239.248a5.069,5.069,0,0,1-.227.568H64.363a5.156,5.156,0,0,1-.228-.568Z" fill="#f7f7f7"/>
  </g>
</svg>
