<svg xmlns="http://www.w3.org/2000/svg" width="54.813" height="54.583" viewBox="0 0 54.813 54.583">
  <g id="Vector_Smart_Object" data-name="Vector Smart Object" transform="translate(-271.164 -115.843)">
    <g id="Group_13" data-name="Group 13">
      <path id="Path_31" data-name="Path 31" d="M324.122,144.232a24.449,24.449,0,1,1-24.449-24.346A24.4,24.4,0,0,1,324.122,144.232Z" fill="#ddd8d7"/>
      <ellipse id="Ellipse_1" data-name="Ellipse 1" cx="24.447" cy="24.348" rx="24.447" ry="24.348" transform="matrix(0.992, -0.129, 0.13, 0.992, 271.164, 122.143)" fill="#ffb452"/>
      <path id="Path_32" data-name="Path 32" d="M316.412,143.134a17.841,17.841,0,1,1-17.841-17.767A17.8,17.8,0,0,1,316.412,143.134Z" fill="#dbdbdb"/>
      <path id="Path_33" data-name="Path 33" d="M323.8,149.992a2.644,2.644,0,0,1-3.246,1.846l-7.65-2.079,1.392-5.078,7.65,2.079a2.631,2.631,0,0,1,1.854,3.232Z" fill="#f4f4f4"/>
      <path id="Path_34" data-name="Path 34" d="M315.145,147.639a18.458,18.458,0,0,1-.877,2.49l-1.36-.369,1.392-5.078,1.36.369A18.419,18.419,0,0,1,315.145,147.639Z" fill="#dbdbdb"/>
      <path id="Path_35" data-name="Path 35" d="M315.09,143.134a16.52,16.52,0,1,1-16.52-16.45A16.485,16.485,0,0,1,315.09,143.134Z" fill="#f4f4f4"/>
      <path id="Path_36" data-name="Path 36" d="M312.447,143.134a13.877,13.877,0,1,1-13.877-13.819A13.848,13.848,0,0,1,312.447,143.134Z" fill="#d65656"/>
      <path id="Path_37" data-name="Path 37" d="M286.677,145.5a13.885,13.885,0,0,1,23.484-9.965,13.855,13.855,0,1,0-21.2,17.561A13.709,13.709,0,0,1,286.677,145.5Z" fill="#bc3b3b"/>
      <g id="Group_11" data-name="Group 11">
        <path id="Path_38" data-name="Path 38" d="M300.358,126.637l-4.736-3.159v-1.185l3.173-3.532,4.736,1.975v1.184Z" fill="#c9c9c9"/>
        <rect id="Rectangle_11" data-name="Rectangle 11" width="5.7" height="5.677" transform="translate(295.622 122.293) rotate(-56.182)" fill="#f4f4f4"/>
      </g>
      <g id="Group_12" data-name="Group 12">
        <path id="Path_39" data-name="Path 39" d="M306.676,128.112,305.3,122.6v-.79l5.533-.578,1.373,4.72v.79Z" fill="#c9c9c9"/>
        <rect id="Rectangle_12" data-name="Rectangle 12" width="5.701" height="5.676" transform="translate(305.303 121.813) rotate(-13.939)" fill="#f4f4f4"/>
      </g>
    </g>
  </g>
</svg>
