<svg xmlns="http://www.w3.org/2000/svg" width="57" height="57" viewBox="0 0 57 57">
  <g id="Vector_Smart_Object" data-name="Vector Smart Object" transform="translate(-176.909 -48.391)">
    <g id="Group_10" data-name="Group 10">
      <path id="Path_16" data-name="Path 16" d="M232.21,95.488l-9.23-9.231-.615-.615a2.03,2.03,0,0,0-2.873,0l-.429.428-.618-.618-1.6-1.6-1.135-1.134a20.747,20.747,0,1,0-4.482,4.482l3.353,3.353-.426.425a2.031,2.031,0,0,0,0,2.871l.616.616,9.23,9.23a5.8,5.8,0,1,0,8.2-8.2Z" fill="#ddd8d7"/>
      <g id="Group_6" data-name="Group 6">
        <path id="Path_17" data-name="Path 17" d="M214.145,81.144l1.372,1.372,1.6,1.6.617.618-4.478,4.48-3.591-3.591Z" fill="#4c4c4c"/>
        <path id="Path_18" data-name="Path 18" d="M213.444,93.129l9.23,9.23a5.8,5.8,0,1,0,8.205-8.2l-9.23-9.231Z" fill="#303030"/>
        <path id="Path_19" data-name="Path 19" d="M221.649,84.926l-8.205,8.2-.616-.616a2.033,2.033,0,0,1,0-2.871l5.334-5.333a2.031,2.031,0,0,1,2.872,0Z" fill="#d65656"/>
      </g>
      <g id="Group_9" data-name="Group 9">
        <path id="Path_20" data-name="Path 20" d="M197.65,52.6a16.535,16.535,0,1,1-16.534,16.536A16.554,16.554,0,0,1,197.65,52.6Zm0-4.2a20.74,20.74,0,1,0,20.741,20.74,20.739,20.739,0,0,0-20.741-20.74Z" fill="#303030"/>
        <g id="Group_7" data-name="Group 7">
          <path id="Path_21" data-name="Path 21" d="M197.629,69.108l-8.11,13.5A15.746,15.746,0,0,1,186.5,57.973Z" fill="#f7f7f7"/>
          <path id="Path_22" data-name="Path 22" d="M197.629,69.108,191.477,83.6a14.7,14.7,0,0,1-1.958-1Z" fill="#303030"/>
          <path id="Path_23" data-name="Path 23" d="M197.629,69.108,202.756,84a15.372,15.372,0,0,1-11.279-.394Z" fill="#ffb452"/>
          <path id="Path_24" data-name="Path 24" d="M197.629,69.108l15.552,2.463A15.366,15.366,0,0,1,202.756,84Z" fill="#74d1cc"/>
          <path id="Path_25" data-name="Path 25" d="M197.629,69.108,186.5,57.973a15.745,15.745,0,0,1,22.269,0,15.074,15.074,0,0,1,4.418,13.6Z" fill="#d65656"/>
        </g>
        <path id="Path_26" data-name="Path 26" d="M197.65,55.207a13.924,13.924,0,1,1-13.923,13.923A13.939,13.939,0,0,1,197.65,55.207Zm0-1.161a15.084,15.084,0,1,0,15.084,15.084A15.085,15.085,0,0,0,197.65,54.046Z" fill="#4c4c4c" opacity="0.15"/>
        <path id="Path_27" data-name="Path 27" d="M203.017,69.131a5.367,5.367,0,1,1-5.367-5.367A5.366,5.366,0,0,1,203.017,69.131Z" fill="#d65656" opacity="0.1"/>
        <g id="Group_8" data-name="Group 8" opacity="0.3">
          <path id="Path_28" data-name="Path 28" d="M197.985,60.168c1.908,1.91,1.413,5.5-1.106,8.015s-6.109,3.017-8.017,1.106-1.412-5.5,1.1-8.013S196.077,58.259,197.985,60.168Z" fill="#74d1cc"/>
          <path id="Path_29" data-name="Path 29" d="M205.842,72.929c.884.886.654,2.543-.511,3.71s-2.824,1.393-3.705.511-.655-2.545.509-3.71S204.96,72.046,205.842,72.929Z" fill="#74d1cc" opacity="0.7"/>
        </g>
        <path id="Path_30" data-name="Path 30" d="M197.65,54.046a15.084,15.084,0,1,1-15.084,15.084A15.1,15.1,0,0,1,197.65,54.046Zm0-1.451a16.535,16.535,0,1,0,16.535,16.535A16.536,16.536,0,0,0,197.65,52.6Z" fill="#f7f7f7"/>
      </g>
    </g>
  </g>
</svg>
