<svg xmlns="http://www.w3.org/2000/svg" width="48" height="62" viewBox="0 0 48 62">
  <g id="Vector_Smart_Object" data-name="Vector Smart Object" transform="translate(-259.601 -283.44)">
    <g id="Group_5" data-name="Group 5">
      <path id="Path_11" data-name="Path 11" d="M304.942,310.135h-3.99v-8.406a16.622,16.622,0,1,0-33.242,0v8.406h-3.99a2.682,2.682,0,0,0-2.659,2.689v29.925a2.683,2.683,0,0,0,2.659,2.691h41.222a2.683,2.683,0,0,0,2.659-2.691V312.824A2.682,2.682,0,0,0,304.942,310.135Zm-30.584,0v-8.407a9.973,9.973,0,1,1,19.944,0v8.407Z" fill="#ddd8d7"/>
      <rect id="Rectangle_8" data-name="Rectangle 8" width="15.693" height="22.704" transform="translate(275.024 316.304)" fill="#303030"/>
      <g id="Group_4" data-name="Group 4">
        <path id="Path_12" data-name="Path 12" d="M299.492,300.251v8.407h-6.65v-8.407a9.973,9.973,0,1,0-19.944,0v8.407h-6.649v-8.407a16.622,16.622,0,1,1,33.243,0Z" fill="#c9c9c9"/>
        <path id="Path_13" data-name="Path 13" d="M282.871,283.44a16.717,16.717,0,0,0-16.621,16.811v8.406h3.324v-8.406a13.3,13.3,0,1,1,26.594,0v8.406h3.325v-8.406A16.717,16.717,0,0,0,282.871,283.44Z" fill="#f7f7f7"/>
        <rect id="Rectangle_9" data-name="Rectangle 9" width="6.649" height="2.827" transform="translate(266.249 305.831)" fill="#dbdbdb"/>
        <rect id="Rectangle_10" data-name="Rectangle 10" width="6.649" height="2.827" transform="translate(292.842 305.831)" fill="#dbdbdb"/>
      </g>
      <path id="Path_14" data-name="Path 14" d="M303.481,308.658H262.259a2.681,2.681,0,0,0-2.659,2.689v29.925a2.682,2.682,0,0,0,2.659,2.69h41.222a2.682,2.682,0,0,0,2.659-2.69V311.347A2.681,2.681,0,0,0,303.481,308.658Zm-18.34,20.066v4.116a1.147,1.147,0,0,1-.334.811,1.117,1.117,0,0,1-.8.336h-2.27a1.122,1.122,0,0,1-.8-.336,1.15,1.15,0,0,1-.332-.811v-4.116a5.25,5.25,0,1,1,4.541,0Z" fill="#d65656"/>
      <path id="Path_15" data-name="Path 15" d="M272.9,308.658v35.3h19.944v-35.3Zm12.243,20.066v4.116a1.147,1.147,0,0,1-.334.811,1.117,1.117,0,0,1-.8.336h-2.27a1.122,1.122,0,0,1-.8-.336,1.15,1.15,0,0,1-.332-.811v-4.116a5.25,5.25,0,1,1,4.541,0Z" fill="#d65656" opacity="0.5"/>
    </g>
  </g>
</svg>
