<svg xmlns="http://www.w3.org/2000/svg" width="492.999" height="24.03" viewBox="0 0 492.999 24.03">
  <path id="Color_Overlay" data-name="Color Overlay" d="M610,9620a12,12,0,1,1,12,12A12,12,0,0,1,610,9620Zm5.918,7.96a9.991,9.991,0,0,0,9.9,1.306,34.181,34.181,0,0,0-2.014-7.436A13.748,13.748,0,0,0,615.917,9627.962Zm9.853-6.52a36.476,36.476,0,0,1,1.893,6.824,10.046,10.046,0,0,0,4.213-6.565,22.208,22.208,0,0,0-4-.389A16.515,16.515,0,0,0,625.77,9621.442ZM611.977,9620a9.984,9.984,0,0,0,2.48,6.59,15.636,15.636,0,0,1,8.577-6.6q-.341-.762-.7-1.484a36.919,36.919,0,0,1-10.3,1.17h-.056C611.982,9619.784,611.977,9619.893,611.977,9620Zm20.04-.283a10,10,0,0,0-2.142-5.91,14.487,14.487,0,0,1-5.664,4.042c.268.551.529,1.119.786,1.7a18.227,18.227,0,0,1,2.844-.215A24.3,24.3,0,0,1,632.016,9619.719Zm-19.771-2.019a35.415,35.415,0,0,0,9.152-.991,49.291,49.291,0,0,0-3.706-5.758A10.071,10.071,0,0,0,612.245,9617.7Zm7.392-7.437a51,51,0,0,1,3.662,5.811,12.678,12.678,0,0,0,5.195-3.7,10,10,0,0,0-8.857-2.112Zm-134.079,21.712c0-.092.007-.184.007-.28a19.421,19.421,0,0,0-19.382-19.232c-.06,0-.123,0-.184,0V9608c.06,0,.123,0,.184,0a23.844,23.844,0,0,1,23.784,23.694c0,.1-.007.188-.007.28Zm-8.069,0c0-.1.015-.184.015-.28a11.426,11.426,0,0,0-11.32-11.26c-.06,0-.123,0-.184,0v-4.429c.06,0,.123-.01.184-.01a15.881,15.881,0,0,1,15.785,15.693c0,.1-.012.184-.015.28ZM857,9626.528v-8.566h-3v-3.812a6.062,6.062,0,0,0,4.525-6.179H862v6H867v4.042H862v7.2a3.033,3.033,0,0,0,3.174,2.831,3.227,3.227,0,0,0,2.831-1.325v3.931a8.041,8.041,0,0,1-4.934,1.327C859.74,9631.97,857,9629.5,857,9626.528Zm-89.1,4.219a10.8,10.8,0,0,1-2.214.231,10.941,10.941,0,0,1-10.7-10.979,10.757,10.757,0,0,1,.247-2.267,6.091,6.091,0,0,1,4.871-9.762,6.351,6.351,0,0,1,3.962,1.745,10.4,10.4,0,0,1,12.186,11.879,6.1,6.1,0,0,1-4.349,10.375A5.86,5.86,0,0,1,767.9,9630.747Zm-6.991-8.361a1.029,1.029,0,0,0-.346.783,2.861,2.861,0,0,0,.575,1.624,4.247,4.247,0,0,0,1.5,1.334,6.952,6.952,0,0,0,3.3.7,7.431,7.431,0,0,0,2.886-.51,4.122,4.122,0,0,0,1.849-1.407,3.436,3.436,0,0,0,.633-2.025,3.212,3.212,0,0,0-.365-1.591,3.059,3.059,0,0,0-1.015-1.073,6.5,6.5,0,0,0-1.579-.718c-.616-.2-1.308-.382-2.069-.546q-.914-.211-1.31-.319a4.343,4.343,0,0,1-.783-.308,1.77,1.77,0,0,1-.609-.466.982.982,0,0,1-.222-.644,1.23,1.23,0,0,1,.65-1.032,3.075,3.075,0,0,1,1.711-.428,2.754,2.754,0,0,1,1.661.4,3.22,3.22,0,0,1,.885,1.1,2.878,2.878,0,0,0,.532.708,1.055,1.055,0,0,0,.716.215,1.2,1.2,0,0,0,1.206-1.172,2.129,2.129,0,0,0-.276-1.006,3.193,3.193,0,0,0-.878-.988,4.706,4.706,0,0,0-1.506-.757,7.3,7.3,0,0,0-2.154-.283,7.768,7.768,0,0,0-2.712.429,3.789,3.789,0,0,0-1.762,1.226,2.9,2.9,0,0,0-.609,1.822,2.815,2.815,0,0,0,.575,1.8,3.934,3.934,0,0,0,1.559,1.146,13.583,13.583,0,0,0,2.439.732c.728.152,1.305.3,1.74.433a2.684,2.684,0,0,1,1.061.59,1.308,1.308,0,0,1,.411,1,1.541,1.541,0,0,1-.761,1.3,4.023,4.023,0,0,1-3.411.264,2.209,2.209,0,0,1-.841-.658,4.92,4.92,0,0,1-.561-.99,1.94,1.94,0,0,0-.51-.755,1.093,1.093,0,0,0-.735-.256A1.219,1.219,0,0,0,760.905,9622.386Zm-46.212,9.125a10.081,10.081,0,0,0,1.192-2.553c.147-.534.849-3.307.849-3.307a3.454,3.454,0,0,0,2.942,1.5c3.87,0,6.5-3.526,6.5-8.255,0-3.567-3.026-6.9-7.624-6.9-5.722,0-8.608,4.1-8.608,7.525,0,2.069.786,3.911,2.466,4.6a.415.415,0,0,0,.6-.3c.056-.213.186-.747.244-.967a.586.586,0,0,0-.172-.672,3.472,3.472,0,0,1-.8-2.362,5.7,5.7,0,0,1,5.93-5.768c3.234,0,5.009,1.978,5.009,4.612,0,3.477-1.535,6.408-3.815,6.408a1.866,1.866,0,0,1-1.9-2.323,25.705,25.705,0,0,0,1.064-4.271,1.616,1.616,0,0,0-1.624-1.811c-1.288,0-2.323,1.337-2.323,3.116a4.632,4.632,0,0,0,.384,1.907s-1.317,5.589-1.549,6.563a10.711,10.711,0,0,0-.213,2.738,12.008,12.008,0,1,1,4.752.977A12.131,12.131,0,0,1,714.693,9631.511Zm-336.684.459v-12.009h-3v-3.991h3v-2.751h.01c.077-2.6,1.264-5.076,5.669-5.233v-.015h3.321v3.988h-2.594a1.449,1.449,0,0,0-1.417,1.555v2.456h3.761l-.73,3.991H383v12.009Zm87.988-3.5a3.5,3.5,0,1,1,3.5,3.469A3.487,3.487,0,0,1,466,9628.47Zm192.012,2.512v-15H663v15Zm19,0v-8.17a3.233,3.233,0,0,0-3.176-3.351c-1.968,0-2.84,1.675-2.84,3.392v8.129h-4.994v-15h4.963v2.055a5.545,5.545,0,0,1,4.844-2.553c2.183,0,6.2,1.088,6.2,6.993v8.5Zm131.466-6.6c-.619-2.179-1.835-7.893-3.259-8.261-.551-.089-2.11,1.124-2.11,1.124l-1.1-1.491c2.113-1.65,5.117-4.776,7.457-4.776s2.915,2.207,3.234,4.663,1.24,7.822,2.478,7.822,4.063-4.75,3.9-6.585-2.2-1.557-3.326-1.034c1.032-3.67,3.421-5.836,6.469-5.836s3.788,2.331,3.788,4.922c0,3.945-8.168,16.036-13.1,16.036C809.846,9630.964,809.09,9626.56,808.471,9624.38Zm-294.5,1.776c0-2.492,3.435-4.516,7.208-4.516l1.177,0a2.639,2.639,0,0,1-.926-1.866,2.676,2.676,0,0,1,.346-1.245c-.205.015-.413.07-.628.07a4.834,4.834,0,0,1-5.178-4.84c0-2.671,2.867-4.779,5.915-4.779h6.8l-1.523,1H525c1.429,0,2.062,2.064,2.062,3.778a4.151,4.151,0,0,1-1.791,3.392c-1.1.858-1.305,1.219-1.305,1.946,0,.621,1.175,1.677,1.789,2.115a4.6,4.6,0,0,1,2.219,4.416c0,2.451-2.219,4.363-6.52,4.363C517.682,9629.99,513.969,9628.609,513.969,9626.156Zm2.983-.355c0,1.979,1.883,3.1,4.491,3.1,3.667,0,4.694-1.021,4.694-3a3.055,3.055,0,0,0-.082-.7c-.285-1.121-1.052-1.68-2.468-2.664a5.729,5.729,0,0,0-1.692-.268l-.075,0C519.244,9622.27,516.952,9623.874,516.952,9625.8Zm1.46-12.256c.3,2.3,1.965,4.209,3.718,4.26s2.923-1.77,2.62-4.071-1.968-4.141-3.718-4.191l-.077,0C519.249,9609.54,518.113,9611.282,518.412,9613.545Zm43.618,5.944a5.48,5.48,0,1,1,5.48,5.512A5.5,5.5,0,0,1,562.03,9619.489Zm12.959,0a5.51,5.51,0,1,1,5.509,5.5A5.5,5.5,0,0,1,574.99,9619.489ZM533.006,9618v-3h-2.995v-2.016h2.995v-3.046h2v3.046h3V9615h-3v3Zm124.584-6.68a2.957,2.957,0,1,1,2.939,2.643A2.8,2.8,0,0,1,657.589,9611.318Z" transform="translate(-375.01 -9607.971)" fill="#fff"/>
</svg>
