<svg xmlns="http://www.w3.org/2000/svg" width="24" height="19.656" viewBox="0 0 24 19.656">
  <path id="twitter" d="M442,9612.843a8.639,8.639,0,0,1-2.746.78,5.25,5.25,0,0,0,2.063-2.689,7.993,7.993,0,0,1-3.088,1.1v0a5.085,5.085,0,0,0-3.578-1.688,4.906,4.906,0,0,0-4.732,5.107,4.979,4.979,0,0,0,.125,1.105h0a14.369,14.369,0,0,1-10.426-5.325,5.2,5.2,0,0,0,1.5,6.729,3.182,3.182,0,0,1-2.162-.561,4.77,4.77,0,0,0,3.819,4.839,3.922,3.922,0,0,1-2.061.157c.157,1.457,2.2,3.359,4.426,3.359a8.807,8.807,0,0,1-7.14,2.056,14.872,14.872,0,0,0,7.745,2.188,14.032,14.032,0,0,0,14.2-14.459c0-.008,0-.018,0-.027s0-.041,0-.062,0-.048,0-.072A8.059,8.059,0,0,0,442,9612.843Z" transform="translate(-418 -9610.344)" fill="#16b5d8"/>
</svg>
